<svg version="1.1" height="1007" width="1410" xmlns="http://www.w3.org/2000/svg" xmlns:svg="http://www.w3.org/2000/svg"><title>Singapore MRT/LRT system map</title><path fill="#ffffff" d="M0 0h1410v1007H0z"/><g><switch><text x="7.1" y="19" font-size="20" font-weight="bold" fill="#001e0d" font-family="Arial" systemLanguage="ms"><tspan>PETA SINGAPURA MRT / LRT</tspan></text><text x="7.1" y="19" font-size="20" font-weight="bold" fill="#001e0d" font-family="Arial"><tspan>SINGAPORE MRT/LRT MAP</tspan></text></switch><switch><text x="7.4" y="29" font-size="8" fill="#001e0d" font-family="Arial" systemLanguage="ms" style="display:inline"><tspan>Correct as at 15 Aug 2024.</tspan></text><text x="7.4" y="29" font-size="8" fill="#001e0d" font-family="Arial" style="display:inline"><tspan>Correct as at 15 June 2025.</tspan></text></switch><switch><text x="7.4" y="38" font-size="8" fill="#001e0d" font-family="Arial" systemLanguage="ms"><tspan>Alignment of future lines are speculative and subject to changes.</tspan></text><text x="7.4" y="38" font-size="8" fill="#001e0d" font-family="Arial"><tspan>Alignment of future lines are speculative and subject to changes.</tspan></text></switch></g><g transform="translate(0 -29.111)"><path fill="#f2f2f2" style="stroke-width:1.02794" d="M0 661h333v375.111H0z"/><g><path fill="#009645" d="M10 671h313v11.5H10z"/><path fill="#d42e12" d="M10 683.5h313V695H10z"/><path fill="#9900aa" d="M10 715.5h313V727H10z"/><path fill="#fa9e0d" d="M10 728.07h313v11.5H10z"/><path fill="#005ec4" d="M10 751.07h313v11.5H10z"/><path fill="#784008" d="M10 783.07h313v11.5H10z"/><path fill="#0099aa" d="M10 833.07h313v11.5H10z"/><path fill="#78be20" d="M10 891.5h313V903H10z"/><path fill="#f266b5" style="fill:#910606;fill-opacity:1" d="M10 950.501h313v11.5H10z"/><path fill="#f266b5" d="M10 974.343h313v11.5H10z"/><path fill="#999999" d="M10 997.37h313v11.5H10z"/><path fill="#87cefa" d="M10 1009.87h313v11.5H10z"/></g><g font-size="11" font-weight="bold" font-family="Arial" fill="#ffffff"><switch><text x="20" y="681" systemLanguage="ms"><tspan>Laluan Timur Barat (EWL)</tspan></text><text x="20" y="681"><tspan>East West Line (EWL)</tspan></text></switch><switch><text x="20" y="693.5" systemLanguage="ms"><tspan>Laluan Utara Selatan (NSL)</tspan></text><text x="20" y="693.5"><tspan>North South Line (NSL)</tspan></text></switch><switch><text x="20" y="725.5" systemLanguage="ms"><tspan>Laluan Timur Laut (NEL)</tspan></text><text x="20" y="725.5"><tspan>North East Line (NEL)</tspan></text></switch><switch transform="translate(0 -10.43)"><text x="20" y="748.5" fill="#000000" systemLanguage="ms"><tspan>Laluan Circle (Lingkaran) (CCL)</tspan></text><text x="20" y="748.5" fill="#000000"><tspan>Circle Line (CCL)</tspan></text></switch><switch transform="translate(0 -10.43)"><text x="20" y="771.5" systemLanguage="ms"><tspan>Laluan Downtown (Pusat Bandar) (DTL)</tspan></text><text x="20" y="771.5"><tspan>Downtown Line (DTL)</tspan></text></switch><switch transform="translate(0 -10.43)"><text x="20" y="803.5" systemLanguage="ms"><tspan>Laluan Thomson – Pantai Timur (TEL)</tspan></text><text x="20" y="803.5"><tspan>Thomson-East Coast Line (TEL)</tspan></text></switch><switch transform="translate(0 -10.43)"><text x="20" y="853.5" systemLanguage="ms"><tspan>Laluan Daerah Jurong (JRL)</tspan></text><text x="20" y="853.5"><tspan>Jurong Region Line (JRL)</tspan></text></switch><switch transform="translate(0 -2)"><text x="20" y="903.5" fill="#000000" systemLanguage="ms"><tspan>Laluan Rentas Pulau (CRL)</tspan></text><text x="20" y="903.5" fill="#000000"><tspan>Cross Island Line (CRL)</tspan></text></switch><switch transform="translate(0 -2)"><text x="20" y="962.501"><tspan>Seletar Line (Under studies)</tspan></text></switch><switch transform="translate(0 55.79)"><text x="20" y="976.5" systemLanguage="ms"><tspan>Sistem Rel Ringan (LRT)</tspan></text><text x="20" y="951.579"><tspan>Light Rapid Transit (LRT) Lines</tspan></text></switch><switch transform="translate(0 55.79)"><text x="20" y="989" fill="#000000" systemLanguage="ms"><tspan>Sistem Transit Aliran Johor–Singapura (RTS)</tspan></text><text x="20" y="964.079" fill="#000000"><tspan>Johor Bahru-Singapore RTS-Link</tspan></text></switch><switch transform="translate(0 21.842)"><text x="20" y="962.501"><tspan>Tengah Line (Under studies)</tspan></text></switch></g><g><path fill="#d42e12" d="M14 694.5h3v20h-3z"/><path fill="#fa9e0d" d="M14 739.07h3v11h-3z"/><path fill="#005ec4" d="M14 762.07h3v20h-3z"/><path fill="#784008" d="M14 794.07h3v38h-3z"/><path fill="#0099aa" style="stroke-width:1.10469" d="M14 844.07h3v46.373h-3z"/><path fill="#78be20" style="stroke-width:1.10293" d="M14 902.5h3v46.226h-3z"/><path fill="#f266b5" style="fill:#910606;fill-opacity:1" d="M14 961.501h3v11h-3z"/><path fill="#f266b5" d="M14 985.343h3v11h-3z"/><path fill="#87cefa" d="M14 1020.87h3v11h-3z"/></g><g fill="#000000" font-family="Arial" font-size="9" style="display:inline"><switch><text x="20" y="703.5" systemLanguage="ms" style="display:inline"><tspan font-weight="bold">Stesen Brickland</tspan><tspan>(2034)</tspan></text><text x="20" y="703.5"><tspan font-weight="bold">Brickland Station</tspan><tspan>(2034)</tspan></text></switch><switch><text x="20" y="712.5" systemLanguage="ms"><tspan font-weight="bold">Stesen Sungei Kadut</tspan><tspan>(Under studies, Mid-2030s)</tspan></text><text x="20" y="712.5"><tspan font-weight="bold">Sungei Kadut Station</tspan><tspan>(2035)</tspan></text></switch><switch transform="translate(0 -10.43)"><text x="20" y="758.5"><tspan font-weight="bold">CCL6</tspan><tspan>: Marina Bay - Harbourfront (2026)</tspan></text></switch><switch transform="translate(0 -10.43)"><text x="20" y="781.5"><tspan font-weight="bold">DTL3e</tspan><tspan>: Expo - Sungei Bedok (2026)</tspan></text></switch><switch transform="translate(0 -10.43)"><text x="20" y="790.5"><tspan font-weight="bold">DTL2e</tspan><tspan>: Bukit Panjang - Sungei Kadut (2035)</tspan></text></switch><switch transform="translate(0 -10.43)"><text x="20" y="813.5"><tspan font-weight="bold">TEL5</tspan><tspan>: Bayshore - Sungei Bedok (2026)</tspan></text></switch><switch transform="translate(0 -10.43)"><text x="20" y="822.5" systemLanguage="ms"><tspan font-weight="bold">Stesen Peringatan Pengasas</tspan><tspan>(2028)</tspan></text><text x="20" y="822.5"><tspan font-weight="bold">Founders&apos; Memorial Station</tspan><tspan>(2028)</tspan></text></switch><switch transform="translate(0 -10.43)"><text x="20" y="831.5"><tspan font-weight="bold">Mount Pleasant Station, Marina South Station</tspan><tspan>(Mothballed)</tspan></text></switch><switch transform="translate(0 -10.43)"><text x="20" y="840.5"><tspan font-weight="bold">TELe</tspan><tspan>: Sungei Bedok - Tanah Merah (Under studies, by 2040)</tspan></text></switch><switch transform="translate(0 -10.43)"><text x="20" y="863.5"><tspan font-weight="bold">JRL1</tspan><tspan>: Choa Chu Kang - Tawas, Boon Lay (2027)</tspan></text></switch><switch transform="translate(0 -10.43)"><text x="20" y="872.5"><tspan font-weight="bold">JRL2</tspan><tspan>: Tengah - Pandan Reservoir (2028)</tspan></text></switch><switch transform="translate(0 -10.43)"><text x="20" y="881.5"><tspan font-weight="bold">JRL3</tspan><tspan>: Tawas - Peng Kang Hill, Boon Lay - Jurong Pier (2029)</tspan></text></switch><switch transform="translate(0 -10.43)"><text x="20" y="890.5"><tspan font-weight="bold">WCE1</tspan><tspan>: Pandan Reservoir - West Coast (Under studies, Late 2030s)</tspan></text></switch><switch style="display:inline" transform="translate(0 -1.5)"><text x="20" y="890.5"><tspan font-weight="bold">WCE2</tspan><tspan>: West Coast - Kent Ridge (Under studies, Early 2040s)</tspan></text></switch><switch transform="translate(0 -2)"><text x="20" y="913.5"><tspan font-weight="bold">CRL1</tspan><tspan>: Aviation Park - Bright Hill (2030)</tspan></text></switch><switch transform="translate(0 -2)"><text x="20" y="922.5"><tspan font-weight="bold">CPE</tspan><tspan>: Pasir Ris - Punggol (2032)</tspan></text></switch><switch transform="translate(0 -2)"><text x="20" y="931.5"><tspan font-weight="bold">CRL2</tspan><tspan>: Bright Hill - Jurong Lake District (2032)</tspan></text></switch><switch transform="translate(0 16)" style="display:inline"><text x="20" y="931.5"><tspan style="font-style:normal;font-variant:normal;font-weight:bold;font-stretch:normal;font-family:Arial;-inkscape-font-specification:'Arial Bold'">CRL3</tspan>: Jurong Lake District - ? (Under studies)</text></switch><switch transform="translate(0 6.446)" style="display:inline"><text x="20" y="931.5"><tspan style="font-style:normal;font-variant:normal;font-weight:bold;font-stretch:normal;font-family:Arial;-inkscape-font-specification:'Arial Bold'">CRL1e</tspan>: Aviation Park - Changi Airport Terminal 5 (TBD)</text></switch><switch transform="translate(0 -2)"><text x="20" y="972.501"><tspan font-weight="bold">??L</tspan><tspan>: ? - ? (Under studies, from 2040s)</tspan></text></switch><switch transform="translate(0 55.79)"><text x="20" y="974.079"><tspan font-weight="bold">RTS-Link</tspan><tspan>: Bukit Chagar (JB) - Woodlands North (2026)</tspan></text></switch><switch transform="translate(0 21.842)"><text x="20" y="972.501"><tspan font-weight="bold">??L</tspan><tspan>: ? - ? (Under studies, from 2040s)</tspan></text></switch></g></g><g fill="none" stroke-width="4"><g stroke="#009645"><path d="M1227 638v16q0 20 20 20h84"/><path d="m1284 523-25 25q-14.14 14.14-14.14 34.14v37q0 20-20 20h-220q-20 0-34.14 14.14l-182 182q-14.14 14.14-34.14 14.14h-43q-20 0-34.14-14.14l-9-9q-14.14-14.14-14.14-34.14T640.16 758l-230.4-230.4q-14.14-14.14-34.14-14.14H95.02q-20 0-20 20v82"/></g><g stroke="#d42e12"><path d="M286 514V107q0-20 20-20h391.5q20 0 34.4 14.4l40 40q14.4 14.14 14.14 34.14v255q0 20-14.14 34.14l-104 104q-14.14 14.14 0 28.28l162 162q14.14 14.14 0 28.28l-29.7 29.7q-14.14 14.14-14.14 20v125"/></g><g stroke="#9900aa"><path d="m582 866 173.2-173.2c9.427-9.427 14.14-18.853 14.14-28.28v-28c0-13.333 4.713-24.78 14.14-34.34l446.16-444.919"/></g><g stroke="#fa9e0d"><path d="M754 689q20 0 34.14 14.14l124 124q14.14 14.14 28.28 0"/><path d="M582 867a265 265 0 1 1 211 47"/><path d="M582 867a265 265 0 0 0 211 47" stroke-width="4.5" stroke-dasharray="10, 10"/></g><g stroke="#005ec4"><path d="M479 225v157q0 20 14.14 34.14l48.5 48.5q14.14 14.14 34.14 14.14h56q20 0 34.14 14.14l284 284q13 14.14 0 30c-16.1 22.6-47.3 54.9-93.9 80q-20.34 9-41.1-10l-121-121"/><path d="M698 760q-14.14-14.14 0-28.28l10-10q14.14-14.14 28.28-14.14h61q20 0 34.14-14.14l99-99q14.14-14.14 34.14-14.14h301.5q20 0 20 20v89"/></g><g stroke="#005ec4" stroke-dasharray="8, 8"><path d="M1286 695v70M479 225v-13q0-14.14-14.14-34.14l-40-40q-14.14-14.14-34.14-14.14h-105"/></g><g stroke="#784008"><path d="m496 34 147.8 147.8q14.14 14.14 14.14 34.14v557q0 20 14.14 34.14l132 132q14.14 14.14 34.14 14.14h40q19.25 0 48.12-19.22a355 355 0 0 0 122.89-148q8.52-20 19.77-20h127"/></g><g stroke="#784008" stroke-dasharray="8, 8"><path d="M1196 766h170q20 0 20-20v-52q0-20-20-20h-35"/></g><g stroke="#0099aa" stroke-dasharray="8, 8"><path d="M292 220 168.5 343.5q-14.14 14.14-14.14 34.14v142q0 20 14.14 34.14l62 62M151 480H95q-20 0-20-20V326"/><path d="M179 332c-9.427 9.427-14.14 20.807-14.14 34.14v6c0 13.333 4.713 24.713 14.14 34.14l253.44 253.44a45.87 45.87 22.5 0 0 32.435 13.435h11.428"/></g><g stroke="#78be20" stroke-dasharray="8, 8"><path d="m77 544 59.5 59.5c9.427 9.427 20.807 14.14 34.14 14.14H363.5c14.527 0 23.027-7.377 25.5-22.13 25.535-152.401 146.47-270.927 299.354-293.39C841.238 279.656 991.156 358.385 1059.45 497c6.873 13.947 22.363 20.92 46.47 20.92h153c13.333 0 24.713 4.713 34.14 14.14l83.8 83.8c9.427 9.427 14.14 20.807 14.14 34.14v65.251M1177 209.5l67 67q14.14 14.14 14.14 34.14v167.4q0 20 14.14 34.14l10 10"/></g><g stroke="#999999"><path d="M284.4 225.6h207q10 0 17.07-7.07l19.2-19.2q7.07-7.07 17.07-7.07h10q10 0 10 10v46.6q0 10-10 10h-10q-10 0-17.07-7.07l-19.2-19.2q-7.07-7.07-17.07-7.07M1081 306l-7.76-7.76q-7.07-7.07-7.07-17.07v-20q0-10-7.07-17.07l-19-19q-7.07-7.07-14.14 0l-26 26q-7.07 7.07 0 14.14l19 19q7.07 7.07 17.07 7.07h20q10 0 17.07 7.07M1081 306l7.76 7.76q7.07 7.07 7.07 17.07v20q0 10 7.07 17.07l19 19q7.07 7.07 14.14 0l26-26q7.07-7.07 0-14.14l-19-19q-7.07-7.07-17.07-7.07h-20q-10 0-17.07-7.07M1176 209.5l-7.76-7.76q-7.07-7.07-7.07-17.07v-20q0-10-7.07-17.07l-19-19q-7.07-7.07-14.14 0l-26 26q-7.07 7.07 0 14.14l19 19q7.07 7.07 17.07 7.07h20q10 0 17.07 7.07M1177 209.5l7.76 7.76q7.07 7.07 7.07 17.07v20q0 10 7.07 17.07l19 19q7.07 7.07 14.14 0l26-26q7.07-7.07 0-14.14l-19-19q-7.07-7.07-17.07-7.07h-20q-10 0-17.07-7.07"/></g><g stroke="#f266b5" stroke-dasharray="8, 8" style="stroke:#910606;stroke-opacity:1"><path d="M496 34h300q20 0 34.4 14.4l74 74q14.4 14.14 14.14 34.14v182q0 20-14.14 34.14l-59 59q-14.14 14.14-14.14 34.14v77q0 20 14.14 34.14l128 128q14.14 14.14 14.14 34.14v112q0 23.83-10.03 34.14A331 331 0 0 1 932.04 924q-17.7 15-40 15h-45" style="stroke:#910606;stroke-opacity:1"/></g><g stroke="#f266b5" stroke-dasharray="8, 8"><path style="fill:none;stroke-width:4;stroke-linecap:butt;stroke-linejoin:miter;stroke-dasharray:8, 8;stroke-dashoffset:0;paint-order:normal" d="M179 334h8.094a48.284 48.284 22.5 0 1 34.142 14.142l117.03 117.031a48.284 48.284 22.5 0 0 34.143 14.142h3.916a48.284 48.284 22.5 0 1 34.142 14.142l11.16 11.16a48.284 48.284 67.5 0 1 14.142 34.143v39.076a48.284 48.284 67.5 0 0 14.142 34.143l80.38 80.38a48.284 48.284 67.5 0 1 14.143 34.142v6.516a48.284 48.284 67.5 0 0 14.142 34.142l49.122 49.122"/></g><g stroke="#87cefa" stroke-dasharray="8, 8"><path d="M496 34h-60"/></g></g><g fill="#ffffff" stroke-width="2" style="display:inline"><g stroke="#009645"><circle cx="1334" cy="674" r="3"/><circle cx="1283" cy="524.5" r="3"/><circle cx="1245" cy="614" r="3"/><circle cx="1186" cy="639" r="3"/><circle cx="1126" cy="639" r="3"/><circle cx="1066" cy="639" r="3"/><circle cx="984" cy="643" r="3"/><circle cx="946" cy="678" r="3"/><circle cx="926" cy="698" r="3"/><circle cx="698.5" cy="848" r="3"/><circle cx="630" cy="748" r="3"/><circle cx="595.5" cy="714" r="3"/><circle cx="554.7" cy="673" r="3"/><circle cx="519" cy="637" r="3"/><circle cx="451" cy="570" r="3"/><circle cx="407" cy="526" r="3"/><circle cx="247" cy="514" r="3"/><circle cx="202" cy="514" r="3"/><circle cx="155" cy="514" r="3"/><circle cx="120" cy="514" r="3"/><circle cx="90" cy="514" r="3"/><circle cx="75" cy="542" r="3"/><circle cx="75" cy="570" r="3"/><circle cx="75" cy="598" r="3"/><circle cx="75" cy="616" r="3"/></g><g stroke="#d42e12"><circle cx="286" cy="413" r="3"/><circle cx="286" cy="351" r="3"/><circle cx="286" cy="291" r="3"/><circle cx="286" cy="173" r="3"/><circle cx="286" cy="123" r="3"/><circle cx="352" cy="87" r="3"/><circle cx="435" cy="87" r="3"/><circle cx="612" cy="87" r="3"/><circle cx="685" cy="87" r="3"/><circle cx="735" cy="104" r="3"/><circle cx="775" cy="144" r="3"/><circle cx="786" cy="202" r="3"/><circle cx="786" cy="250" r="3"/><circle cx="786" cy="300" r="3"/><circle cx="786" cy="428" r="3"/><circle cx="770" cy="467" r="3"/><circle cx="739" cy="498" r="3"/><circle cx="702" cy="632" r="3"/><circle cx="786" cy="962" r="3"/></g><g stroke="#9900aa"><circle cx="723.5" cy="724.5" r="3"/><circle cx="807.5" cy="578.4" r="3"/><circle cx="833" cy="553" r="3"/><circle cx="861" cy="525" r="3"/><circle cx="888" cy="498" r="3"/><circle cx="956" cy="430" r="3"/><circle cx="988" cy="398.5" r="3"/><circle cx="1018" cy="368" r="3"/><circle cx="1229.64" cy="157.261" r="3"/></g><g stroke="#fa9e0d"><circle cx="824" cy="739" r="3"/><circle cx="870" cy="785" r="3"/><circle cx="980" cy="766" r="3"/><circle cx="997" cy="720" r="3"/><circle cx="1002" cy="695" r="3"/><circle cx="1005" cy="670" r="3"/><circle cx="984.5" cy="552" r="3"/><circle cx="964" cy="514" r="3"/><circle cx="859" cy="418" r="3"/><circle cx="721" cy="390.8" r="3"/><circle cx="601" cy="429" r="3"/><circle cx="515.5" cy="514" r="3"/><circle cx="497" cy="549" r="3"/><circle cx="475.7" cy="637" r="3"/><circle cx="476" cy="674" r="3"/><circle cx="481" cy="709" r="3"/><circle cx="493.5" cy="750" r="3"/><circle cx="513.8" cy="792" r="3"/><circle cx="540" cy="827.5" r="3"/><circle cx="630" cy="895" r="3"/><circle cx="681" cy="912" r="3"/><circle cx="735" cy="919" r="3"/></g><g stroke="#005ec4"><circle cx="479" cy="265" r="3"/><circle cx="479" cy="297" r="3"/><circle cx="479" cy="329" r="3"/><circle cx="479" cy="361" r="3"/><circle cx="485" cy="406" r="3"/><circle cx="502" cy="425" r="3"/><circle cx="524" cy="447.5" r="3"/><circle cx="818" cy="645" r="3"/><circle cx="804" cy="866" r="3"/><circle cx="742" cy="803" r="3"/><circle cx="703.5" cy="727" r="3"/><circle cx="832" cy="693" r="3"/><circle cx="865" cy="659.8" r="3"/><circle cx="896" cy="629" r="3"/><circle cx="927" cy="598" r="3"/><circle cx="965" cy="580" r="3"/><circle cx="1046" cy="580" r="3"/><circle cx="1089" cy="580" r="3"/><circle cx="1129" cy="580" r="3"/><circle cx="1172.5" cy="580" r="3"/><circle cx="1211" cy="580" r="3"/><circle cx="1286" cy="612" r="3"/><circle cx="1286" cy="647" r="3"/><circle cx="1286" cy="726" r="3"/><circle cx="1286" cy="766" r="3"/><circle cx="460.366" cy="173.36" r="3"/></g><g stroke="#784008"><circle cx="496" cy="34" r="3"/><circle cx="589" cy="127" r="3"/><circle cx="624" cy="161.8" r="3"/><circle cx="658" cy="208" r="3"/><circle cx="658" cy="247" r="3"/><circle cx="658" cy="309" r="3"/><circle cx="658" cy="357" r="3"/><circle cx="658" cy="444" r="3"/><circle cx="658" cy="517" r="3"/><circle cx="658" cy="549" r="3"/><circle cx="658" cy="648" r="3"/><circle cx="658" cy="694" r="3"/><circle cx="690" cy="825" r="3"/><circle cx="745" cy="881" r="3"/><circle cx="836" cy="953" r="3"/><circle cx="880" cy="953" r="3"/><circle cx="951" cy="915" r="3"/><circle cx="1001" cy="865" r="3"/><circle cx="1027" cy="829" r="3"/><circle cx="1044" cy="797" r="3"/><circle cx="1085" cy="766" r="3"/><circle cx="1124" cy="766" r="3"/><circle cx="1163" cy="766" r="3"/><circle cx="1202" cy="766" r="3"/><circle cx="1241" cy="766" r="3"/></g><g stroke="#0099aa"><circle cx="227" cy="286" r="3"/><circle cx="179" cy="334" r="3"/><circle cx="154.5" cy="380" r="3"/><circle cx="154.5" cy="415" r="3"/><circle cx="154.5" cy="450" r="3"/><circle cx="154.5" cy="480" r="3"/><circle cx="156" cy="535" r="3"/><circle cx="179" cy="565" r="3"/><circle cx="203.5" cy="589" r="3"/><circle cx="232" cy="617" r="3"/><circle cx="166" cy="386" r="3"/><circle cx="188" cy="416" r="3"/><circle cx="220" cy="448" r="3"/><circle cx="249" cy="477" r="3"/><circle cx="311" cy="539" r="3"/><circle cx="335" cy="563" r="3"/><circle cx="75" cy="465" r="3"/><circle cx="75" cy="430" r="3"/><circle cx="75" cy="395" r="3"/><circle cx="75" cy="360" r="3"/><circle cx="75" cy="325" r="3"/></g><g stroke="#78be20"><circle cx="1391" cy="649" r="3"/><circle cx="1359" cy="599" r="3"/><circle cx="1319" cy="559" r="3"/><circle cx="1210" cy="518" r="3"/><circle cx="1049" cy="478" r="3"/><circle cx="918" cy="347" r="3"/><circle cx="856" cy="318" r="3"/><circle cx="726" cy="299" r="3"/><circle cx="540" cy="360" r="3"/><circle cx="439" cy="463" r="3"/><circle cx="382.856" cy="610.725" r="3"/><circle cx="325.51" cy="617" r="3"/><circle cx="1258" cy="420" r="3"/></g><g stroke="#000000" stroke-width="3"><circle cx="760.2" cy="689" r="6"/><circle cx="786" cy="916" r="6"/><circle cx="887" cy="871" r="6"/><circle cx="953.3" cy="806" r="6"/><circle cx="1005" cy="639" r="6"/><circle cx="995" cy="580" r="6"/><circle cx="923" cy="463.2" r="6"/><circle cx="786" cy="394" r="6"/><circle cx="658" cy="402.8" r="6"/><circle cx="548" cy="471.5" r="6"/><circle cx="481" cy="599" r="6"/><circle cx="581" cy="866" r="6"/><circle cx="1286" cy="674" r="6"/><circle cx="1245" cy="580.5" r="6"/><circle cx="1227" cy="639" r="6"/><circle cx="899" cy="726" r="6"/><circle cx="830.3" cy="790" r="6"/><circle cx="799" cy="822" r="6"/><circle cx="657" cy="790.5" r="6"/><circle cx="286" cy="514" r="6"/><circle cx="693.5" cy="754" r="6"/><circle cx="780" cy="606.5" r="6"/><circle cx="1080.7" cy="305.3" r="6"/><circle cx="1177" cy="209.5" r="6"/><circle cx="286" cy="225.5" r="6"/><circle cx="549" cy="87" r="6"/><circle cx="705" cy="532" r="6"/><circle cx="660" cy="583.036" r="6"/><circle cx="479" cy="225.5" r="6"/><circle cx="658" cy="486" r="6"/><circle cx="1388.693" cy="716.743" r="6"/></g><g stroke="#999999" stroke-width="1.7"><circle cx="321" cy="226" r="2.6"/><circle cx="356" cy="226" r="2.6"/><circle cx="391" cy="226" r="2.6"/><circle cx="426" cy="226" r="2.6"/><circle cx="521" cy="245" r="2.6"/><circle cx="546" cy="259" r="2.6"/><circle cx="565" cy="248" r="2.6"/><circle cx="565" cy="226" r="2.6"/><circle cx="565" cy="204" r="2.6"/><circle cx="546" cy="192" r="2.6"/><circle cx="521" cy="206" r="2.6"/></g><g stroke="#999999" stroke-width="1.7"><circle cx="1127" cy="321" r="2.6"/><circle cx="1154" cy="339" r="2.6"/><circle cx="1151" cy="372" r="2.6"/><circle cx="1113" cy="377.3" r="2.6"/><circle cx="1095.5" cy="348.5" r="2.6"/><circle cx="1066.5" cy="273.5" r="2.6"/><circle cx="1061.4" cy="247" r="2.6"/><circle cx="1044" cy="229" r="2.6"/><circle cx="1022" cy="229" r="2.6"/><circle cx="1002" cy="249" r="2.6"/><circle cx="1003.5" cy="269.5" r="2.6"/><circle cx="1018.7" cy="284.5" r="2.6"/><circle cx="1047" cy="291.5" r="2.6"/></g><g stroke="#999999" stroke-width="1.7"><circle cx="1191.7" cy="247.3" r="2.6"/><circle cx="1198" cy="270" r="2.6"/><circle cx="1215" cy="287" r="2.6"/><circle cx="1245" cy="277.7" r="2.6"/><circle cx="1254" cy="246.5" r="2.6"/><circle cx="1238" cy="230.5" r="2.6"/><circle cx="1214" cy="224" r="2.6"/><circle cx="1161" cy="177" r="2.6"/><circle cx="1156" cy="150" r="2.6"/><circle cx="1139" cy="132" r="2.6"/><circle cx="1106" cy="144" r="2.6"/><circle cx="1098.5" cy="173" r="2.6"/><circle cx="1115.5" cy="190" r="2.6"/><circle cx="1141" cy="194.5" r="2.6"/></g><g stroke="#87cefa" stroke-width="1.7"><circle cx="436" cy="34" r="3"/></g></g><g font-family="Arial"><g font-size="12" fill="#000000"><switch><text x="1310" y="687"><tspan>Changi</tspan></text></switch><switch><text x="1312" y="699"><tspan>Airport</tspan></text></switch><switch><text x="1289" y="522"><tspan>Pasir Ris</tspan></text></switch><switch><text x="1209" y="617"><tspan>Simei</tspan></text></switch><switch><text x="1171" y="652"><tspan>Bedok</tspan></text></switch><switch><text x="1092" y="633"><tspan>Kembangan</tspan></text></switch><switch><text x="1050" y="652"><tspan>Eunos</tspan></text></switch><switch><text x="945" y="638"><tspan>Aljunied</tspan></text></switch><switch><text x="954" y="682"><tspan>Kallang</tspan></text></switch><switch><text x="875" y="693"><tspan>Lavender</tspan></text></switch><switch><text x="650" y="857"><tspan>Tanjong</tspan></text></switch><switch><text x="660" y="869"><tspan>Pagar</tspan></text></switch><switch><text x="623.488" y="753" style="text-align:end;text-anchor:end"><tspan style="text-align:end;text-anchor:end">Tiong Bahru</tspan></text></switch><switch><text x="554" y="721"><tspan>Redhill</tspan></text></switch><switch><text x="561" y="672.5"><tspan>Queenstown</tspan></text></switch><switch><text x="525" y="636"><tspan>Commonwealth</tspan></text></switch><switch transform="translate(34.142 -15.14)"><text x="418" y="581"><tspan>Dover</tspan></text></switch><switch transform="translate(-.28 2.821)"><text x="414" y="526"><tspan>Clementi</tspan></text></switch><switch><text x="224" y="527"><tspan>Chinese</tspan></text></switch><switch><text x="226" y="539"><tspan>Garden</tspan></text></switch><switch><text x="178" y="508"><tspan>Lakeside</tspan></text></switch><switch><text x="122" y="496"><tspan>Boon</tspan></text></switch><switch><text x="131" y="508"><tspan>Lay</tspan></text></switch><switch><text x="100" y="527"><tspan>Pioneer</tspan></text></switch><switch><text x="80" y="496"><tspan>Joo</tspan></text></switch><switch><text x="76" y="508"><tspan>Koon</tspan></text></switch><switch><text x="15" y="546"><tspan>Gul Circle</tspan></text></switch><switch><text x="41" y="566"><tspan>Tuas</tspan></text></switch><switch><text x="19" y="578"><tspan>Crescent</tspan></text></switch><switch><text x="10" y="596"><tspan>Tuas West</tspan></text></switch><switch><text x="39" y="608"><tspan>Road</tspan></text></switch><switch><text x="15" y="620"><tspan>Tuas Link</tspan></text></switch></g><g font-size="12" fill="#000000"><switch transform="translate(0 4.385)"><text x="292" y="411"><tspan>Bukit Batok</tspan></text></switch><switch><text x="292" y="350"><tspan>Bukit</tspan></text></switch><switch><text x="292" y="362"><tspan>Gombak</tspan></text></switch><switch><text x="292" y="295" fill="#aaaaaa"><tspan>Brickland</tspan></text></switch><switch><text x="292" y="175"><tspan>Yew Tee</tspan></text></switch><switch><text x="204" y="125" fill="#aaaaaa"><tspan>Sungei Kadut</tspan></text></switch><switch><text x="335.5" y="80"><tspan>Kranji</tspan></text></switch><switch><text x="410" y="80"><tspan>Marsiling</tspan></text></switch><switch><text x="586" y="80"><tspan>Admiralty</tspan></text></switch><switch><text x="650" y="80"><tspan>Sembawang</tspan></text></switch><switch><text x="742" y="108"><tspan>Canberra</tspan></text></switch><switch><text x="730" y="151"><tspan>Yishun</tspan></text></switch><switch><text x="746" y="205"><tspan>Khatib</tspan></text></switch><switch><text x="763" y="246"><tspan>Yio</tspan></text></switch><switch><text x="727" y="258"><tspan>Chu Kang</tspan></text></switch><switch><text x="758" y="317"><tspan>Ang</tspan></text></switch><switch><text x="742" y="329"><tspan>Mo Kio</tspan></text></switch><switch><text x="734" y="432"><tspan>Braddell</tspan></text></switch><switch><text x="779" y="473"><tspan>Toa</tspan></text></switch><switch><text x="779" y="485"><tspan>Payoh</tspan></text></switch><switch><text x="748" y="504"><tspan>Novena</tspan></text></switch><switch><text x="709" y="634"><tspan>Somerset</tspan></text></switch><switch><text x="745" y="972"><tspan>Marina</tspan></text></switch><switch><text x="724" y="984"><tspan>South Pier</tspan></text></switch></g><g font-size="12" fill="#000000"><switch><text x="730" y="729"><tspan>Clarke</tspan></text></switch><switch><text x="730" y="741"><tspan>Quay</tspan></text></switch><switch><text x="810" y="591"><tspan>Farrer</tspan></text></switch><switch><text x="810" y="603"><tspan>Park</tspan></text></switch><switch><text x="838" y="564"><tspan>Boon Keng</tspan></text></switch><switch><text x="867" y="532"><tspan>Potong Pasir</tspan></text></switch><switch><text x="893" y="509"><tspan>Woodleigh</tspan></text></switch><switch><text x="961" y="441"><tspan>Kovan</tspan></text></switch><switch><text x="996" y="403"><tspan>Hougang</tspan></text></switch><switch><text x="962" y="365"><tspan>Buangkok</tspan></text></switch><switch transform="translate(-29.702 29.505)"><text x="1264" y="132"><tspan>Punggol Coast</tspan></text></switch></g><g font-size="12" fill="#000000"><switch><text x="830" y="727"><tspan>Bras</tspan></text></switch><switch><text x="830" y="739"><tspan>Basah</tspan></text></switch><switch><text x="872" y="779"><tspan>Esplanade</tspan></text></switch><switch><text x="950" y="748"><tspan>Nicoll</tspan></text></switch><switch><text x="934" y="760"><tspan>Highway</tspan></text></switch><switch><text x="1004" y="726"><tspan>Stadium</tspan></text></switch><switch><text x="1008" y="700"><tspan>Mountbatten</tspan></text></switch><switch><text x="1011" y="674"><tspan>Dakota</tspan></text></switch><switch><text x="989" y="556"><tspan>Tai Seng</tspan></text></switch><switch><text x="968" y="514"><tspan>Bartley</tspan></text></switch><switch><text x="879" y="413"><tspan>Lorong</tspan></text></switch><switch><text x="879" y="425"><tspan>Chuan</tspan></text></switch><switch><text x="690" y="383"><tspan>Marymount</tspan></text></switch><switch><text x="522" y="520"><tspan>Farrer Road</tspan></text></switch><switch><text x="504" y="556"><tspan>Holland</tspan></text></switch><switch><text x="504" y="568"><tspan>Village</tspan></text></switch><switch><text x="444" y="635"><tspan>one-</tspan></text></switch><switch><text x="441" y="645"><tspan>north</tspan></text></switch><switch transform="translate(-37.201 11.15)"><text x="506.719" y="674" style="text-align:end;text-anchor:end"><tspan style="text-align:end;text-anchor:end">Kent</tspan></text></switch><switch transform="translate(-37.201 11.15)"><text x="507.129" y="686" style="text-align:end;text-anchor:end"><tspan style="text-align:end;text-anchor:end">Ridge</tspan></text></switch><switch><text x="490" y="713"><tspan>Haw Par</tspan></text></switch><switch><text x="490" y="725"><tspan>Villa</tspan></text></switch><switch><text x="458" y="758"><tspan>Pasir</tspan></text></switch><switch><text x="442" y="770"><tspan>Panjang</tspan></text></switch><switch><text x="458" y="798"><tspan>Labrador</tspan></text></switch><switch><text x="483" y="810"><tspan>Park</tspan></text></switch><switch><text x="504" y="834"><tspan>Telok</tspan></text></switch><switch><text x="488" y="846"><tspan>Blangah</tspan></text></switch></g><g font-size="12" fill="#aaaaaa"><switch><text x="571" y="414"><tspan>Bukit</tspan></text></switch><switch><text x="566" y="426"><tspan>Brown</tspan></text></switch><switch><text x="599" y="911"><tspan>Keppel</tspan></text></switch><switch><text x="636" y="928"><tspan>Cantonment</tspan></text></switch><switch><text x="717" y="934"><tspan>Prince</tspan></text></switch><switch><text x="713" y="946"><tspan>Edward</tspan></text></switch><switch><text x="720" y="958"><tspan>Road</tspan></text></switch></g><g font-size="12" fill="#000000"><switch><text x="430.5" y="269"><tspan>Cashew</tspan></text></switch><switch><text x="433" y="301"><tspan>Hillview</tspan></text></switch><switch><text x="442" y="333"><tspan>Hume</tspan></text></switch><switch><text x="436" y="358"><tspan>Beauty</tspan></text></switch><switch><text x="442" y="370"><tspan>World</tspan></text></switch><switch><text x="415" y="396"><tspan>King Albert</tspan></text></switch><switch><text x="450" y="408"><tspan>Park</tspan></text></switch><switch><text x="503" y="407"><tspan>Sixth</tspan></text></switch><switch><text x="503" y="419"><tspan>Avenue</tspan></text></switch><switch><text x="529" y="434"><tspan>Tan</tspan></text></switch><switch><text x="529" y="446"><tspan>Kah Kee</tspan></text></switch><switch><text x="775" y="655"><tspan>Rochor</tspan></text></switch><switch><text x="809" y="865"><tspan>Downtown</tspan></text></switch><switch><text x="747" y="789"><tspan>Telok</tspan></text></switch><switch><text x="747" y="801"><tspan>Ayer</tspan></text></switch><switch><text x="685" y="708"><tspan>Fort</tspan></text></switch><switch><text x="662" y="720"><tspan>Canning</tspan></text></switch><switch><text x="780" y="686"><tspan>Bencoolen</tspan></text></switch><switch><text x="874" y="660"><tspan>Jalan</tspan></text></switch><switch><text x="874" y="671"><tspan>Besar</tspan></text></switch><switch><text x="825" y="632"><tspan>Bendemeer</tspan></text></switch><switch><text x="882" y="582"><tspan>Geylang</tspan></text></switch><switch><text x="895" y="594"><tspan>Bahru</tspan></text></switch><switch><text x="951.5" y="595"><tspan>Mattar</tspan></text></switch><switch><text x="1036" y="575"><tspan>Ubi</tspan></text></switch><switch><text x="1077" y="595"><tspan>Kaki</tspan></text></switch><switch><text x="1075" y="607"><tspan>Bukit</tspan></text></switch><switch><text x="1110" y="562"><tspan>Bedok</tspan></text></switch><switch><text x="1112" y="574"><tspan>North</tspan></text></switch><switch><text x="1157" y="595"><tspan>Bedok</tspan></text></switch><switch><text x="1149" y="607"><tspan>Reservoir</tspan></text></switch><switch><text x="1184" y="562"><tspan>Tampines</tspan></text></switch><switch><text x="1196" y="574"><tspan>West</tspan></text></switch><switch><text x="1292" y="609"><tspan>Tampines</tspan></text></switch><switch><text x="1292" y="621"><tspan>East</tspan></text></switch><switch><text x="1292" y="643"><tspan>Upper</tspan></text></switch><switch><text x="1292" y="655"><tspan>Changi</tspan></text></switch></g><g font-size="12" fill="#aaaaaa"><switch><text x="1292" y="731"><tspan>Xilin</tspan></text></switch><switch><text x="1269" y="782"><tspan>Sungei</tspan></text></switch><switch><text x="1271" y="794"><tspan>Bedok</tspan></text></switch><switch transform="translate(-823.951 -554.145)"><text x="1292" y="731"><tspan>DE1</tspan></text></switch></g><g font-size="12" fill="#000000"><switch><text x="450" y="29"><tspan>Woodlands North</tspan></text></switch><switch><text x="596" y="119"><tspan>Woodlands</tspan></text></switch><switch><text x="596" y="131"><tspan>South</tspan></text></switch><switch><text x="632" y="163"><tspan>Springleaf</tspan></text></switch><switch><text x="665" y="212"><tspan>Lentor</tspan></text></switch><switch><text x="665" y="250"><tspan>Mayflower</tspan></text></switch><switch><text x="622" y="292"><tspan>Bright</tspan></text></switch><switch><text x="637" y="304"><tspan>Hill</tspan></text></switch><switch><text x="621" y="354"><tspan>Upper</tspan></text></switch><switch><text x="604" y="366"><tspan>Thomson</tspan></text></switch><switch><text x="617" y="520"><tspan>Napier</tspan></text></switch><switch><text x="610" y="546"><tspan>Orchard</tspan></text></switch><switch><text x="599" y="558"><tspan>Boulevard</tspan></text></switch><switch><text x="622" y="647"><tspan>Great</tspan></text></switch><switch><text x="621" y="659"><tspan>World</tspan></text></switch><switch><text x="603" y="697"><tspan>Havelock</tspan></text></switch><switch><text x="694" y="827"><tspan>Maxwell</tspan></text></switch><switch><text x="736" y="863"><tspan>Shenton</tspan></text></switch><switch><text x="746" y="875"><tspan>Way</tspan></text></switch><switch><text x="876" y="968" systemLanguage="ms"><tspan>Taman</tspan></text><text x="876" y="968"><tspan>Gardens</tspan></text></switch><switch><text x="876" y="980" systemLanguage="ms"><tspan>di Pesisiran</tspan></text><text x="876" y="980"><tspan>by the Bay</tspan></text></switch><switch><text x="1000" y="879"><tspan>Tanjong</tspan></text></switch><switch><text x="1000" y="891"><tspan>Rhu</tspan></text></switch><switch><text x="1028" y="842"><tspan>Katong Park</tspan></text></switch><switch><text x="995" y="788"><tspan>Tanjong</tspan></text></switch><switch><text x="1000" y="800"><tspan>Katong</tspan></text></switch><switch><text x="1067" y="748"><tspan>Marine</tspan></text></switch><switch><text x="1065" y="760"><tspan>Parade</tspan></text></switch><switch><text x="1106" y="782"><tspan>Marine</tspan></text></switch><switch><text x="1104" y="794"><tspan>Terrace</tspan></text></switch><switch><text x="1147" y="758"><tspan>Siglap</tspan></text></switch><switch><text x="1178" y="782"><tspan>Bayshore</tspan></text></switch></g><g font-size="12" fill="#aaaaaa"><switch><text x="665" y="442"><tspan>Mount</tspan></text></switch><switch><text x="665" y="454"><tspan>Pleasant</tspan></text></switch><switch><text x="818" y="968"><tspan>Marina</tspan></text></switch><switch><text x="820" y="980"><tspan>South</tspan></text></switch><switch><text x="956" y="923" systemLanguage="ms"><tspan>Peringatan</tspan></text><text x="956" y="923"><tspan>Founders&apos;</tspan></text></switch><switch><text x="956" y="935" systemLanguage="ms"><tspan>Pengasas</tspan></text><text x="956" y="935"><tspan>Memorial</tspan></text></switch><switch><text x="1224" y="746"><tspan>Bedok</tspan></text></switch><switch><text x="1225" y="758"><tspan>South</tspan></text></switch></g><g font-size="12" fill="#aaaaaa"><switch><text x="163" y="274"><tspan>Choa Chu</tspan></text></switch><switch><text x="158" y="286"><tspan>Kang West</tspan></text></switch><switch><text x="132" y="332"><tspan>Tengah</tspan></text></switch><switch><text x="94" y="384"><tspan>Hong Kah</tspan></text></switch><switch><text x="84" y="418"><tspan>Corporation</tspan></text></switch><switch><text x="112" y="448"><tspan>Jurong</tspan></text></switch><switch><text x="121" y="460"><tspan>West</tspan></text></switch><switch><text x="160" y="478"><tspan>Bahar</tspan></text></switch><switch><text x="160" y="490"><tspan>Junction</tspan></text></switch><switch><text x="163" y="540"><tspan>Enterprise</tspan></text></switch><switch><text x="186" y="566"><tspan>Tukang</tspan></text></switch><switch><text x="211" y="591"><tspan>Jurong Hill</tspan></text></switch><switch><text x="156" y="613"><tspan>Jurong Pier</tspan></text></switch><switch><text x="175" y="380"><tspan>Tengah</tspan></text></switch><switch><text x="175" y="392"><tspan>Plantation</tspan></text></switch><switch><text x="192" y="413"><tspan>Tengah Park</tspan></text></switch><switch><text x="221" y="431"><tspan>Bukit Batok</tspan></text></switch><switch><text x="221" y="443"><tspan>West</tspan></text></switch><switch><text x="253" y="462"><tspan>Toh</tspan></text></switch><switch><text x="253" y="475"><tspan>Guan</tspan></text></switch><switch><text x="321" y="532"><tspan>Jurong</tspan></text></switch><switch><text x="321" y="544"><tspan>Town Hall</tspan></text></switch><switch><text x="284" y="564"><tspan>Pandan</tspan></text></switch><switch><text x="274" y="576"><tspan>Reservoir</tspan></text></switch><switch><text x="22" y="469"><tspan>Gek Poh</tspan></text></switch><switch><text x="33" y="434"><tspan>Tawas</tspan></text></switch><switch><text x="20" y="393"><tspan>Nanyang</tspan></text></switch><switch><text x="22" y="404"><tspan>Gateway</tspan></text></switch><switch><text x="20" y="358"><tspan>Nanyang</tspan></text></switch><switch><text x="18" y="370"><tspan>Crescent</tspan></text></switch><switch><text x="8" y="323"><tspan>Peng Kang</tspan></text></switch><switch><text x="51" y="335"><tspan>Hill</tspan></text></switch></g><g font-size="12" fill="#aaaaaa"><switch><text x="1344" y="650"><tspan>Aviation</tspan></text></switch><switch><text x="1360" y="661"><tspan>Park</tspan></text></switch><switch><text x="1361" y="594"><tspan>Loyang</tspan></text></switch><switch><text x="1321" y="554"><tspan>Pasir Ris East</tspan></text></switch><switch><text x="1183" y="501"><tspan>Tampines</tspan></text></switch><switch><text x="1194" y="512"><tspan>North</tspan></text></switch><switch><text x="1055" y="478"><tspan>Defu</tspan></text></switch><switch><text x="924" y="334"><tspan>Serangoon</tspan></text></switch><switch><text x="924" y="345"><tspan>North</tspan></text></switch><switch><text x="856" y="313"><tspan>Tavistock</tspan></text></switch><switch><text x="696" y="293"><tspan>Teck Ghee</tspan></text></switch><switch><text x="544" y="373"><tspan>Turf City</tspan></text></switch><switch><text x="406" y="463"><tspan>Maju</tspan></text></switch><switch transform="translate(-.761 3.654)"><text x="393" y="603"><tspan>West</tspan></text></switch><switch transform="translate(-.761 14.114)"><text x="393" y="603"><tspan>Coast</tspan></text></switch><switch transform="translate(-21.49)"><text x="314.053" y="597.949"><tspan>Jurong Lake</tspan></text></switch><switch transform="translate(-21.49 -34.48)"><text x="328.25" y="645.43"><tspan>District</tspan></text></switch><switch><text x="1264" y="424"><tspan>Elias</tspan></text></switch><switch transform="translate(-6.14 64.333)"><text x="1385.666" y="650" style="text-align:end;text-anchor:end"><tspan style="text-align:end;text-anchor:end">Changi</tspan></text></switch><switch transform="translate(-4.51 65.32)"><text x="1383.701" y="661" style="text-align:end;text-anchor:end"><tspan style="text-align:end;text-anchor:end">Airport T5</tspan></text></switch></g><g font-size="12" fill="#000000" font-weight="bold"><switch><text x="708" y="686"><tspan>Dhoby</tspan></text></switch><switch><text x="709" y="698"><tspan>Ghaut</tspan></text></switch><switch><text x="789" y="895"><tspan>Marina</tspan></text></switch><switch><text x="789" y="907"><tspan>Bay</tspan></text></switch><switch><text x="885" y="888"><tspan>Bayfront</tspan></text></switch><switch><text x="886" y="797"><tspan>Promenade</tspan></text></switch><switch><text x="1010" y="621"><tspan>Paya</tspan></text></switch><switch><text x="1010" y="633"><tspan>Lebar</tspan></text></switch><switch><text x="1001" y="594"><tspan>MacPherson</tspan></text></switch><switch><text x="933" y="468"><tspan>Serangoon</tspan></text></switch><switch><text x="793" y="390"><tspan>Bishan</tspan></text></switch><switch><text x="491" y="470" systemLanguage="ms"><tspan>Kebun</tspan></text><text x="491" y="470"><tspan>Botanic</tspan></text></switch><switch><text x="486" y="482" systemLanguage="ms"><tspan>Bunga</tspan></text><text x="486" y="482"><tspan>Gardens</tspan></text></switch><switch><text x="489" y="600"><tspan>Buona Vista</tspan></text></switch><switch><text x="495" y="875"><tspan>HarbourFront</tspan></text></switch><switch><text x="1252" y="687"><tspan>Expo</tspan></text></switch><switch><text x="1250" y="574"><tspan>Tampines</tspan></text></switch><switch><text x="1235" y="650"><tspan>Tanah</tspan></text></switch><switch><text x="1235" y="662"><tspan>Merah</tspan></text></switch><switch><text x="908" y="730"><tspan>Bugis</tspan></text></switch><switch><text x="840" y="799"><tspan>City</tspan></text></switch><switch><text x="840" y="811"><tspan>Hall</tspan></text></switch><switch><text x="808" y="831"><tspan>Raffles</tspan></text></switch><switch><text x="808" y="843"><tspan>Place</tspan></text></switch><switch><text x="605" y="782"><tspan>Outram</tspan></text></switch><switch><text x="621" y="794"><tspan>Park</tspan></text></switch><switch><text x="292" y="495"><tspan>Jurong</tspan></text></switch><switch><text x="292" y="508"><tspan>East</tspan></text></switch><switch><text x="247" y="213"><tspan>Choa</tspan></text></switch><switch><text x="221" y="225"><tspan>Chu Kang</tspan></text></switch><switch><text x="714" y="536"><tspan>Newton</tspan></text></switch><switch><text x="480" y="100"><tspan>Woodlands</tspan></text></switch><switch><text x="702" y="758"><tspan>Chinatown</tspan></text></switch><switch><text x="739" y="605"><tspan>Little</tspan></text></switch><switch><text x="738" y="617"><tspan>India</tspan></text></switch><switch><text x="1013" y="309"><tspan>Sengkang</tspan></text></switch><switch><text x="1117" y="215"><tspan>Punggol</tspan></text></switch><switch><text x="445" y="240"><tspan>Bukit</tspan></text></switch><switch><text x="429" y="252"><tspan>Panjang</tspan></text></switch><switch><text x="595" y="399"><tspan>Caldecott</tspan></text></switch><switch><text x="664" y="484"><tspan>Stevens</tspan></text></switch><switch transform="translate(0 -2.964)"><text x="604" y="590"><tspan>Orchard</tspan></text></switch></g><g font-size="10" fill="#000000"><switch><text x="307" y="211"><tspan>South</tspan></text></switch><switch><text x="309" y="221"><tspan>View</tspan></text></switch><switch><text x="345" y="239"><tspan>Keat</tspan></text></switch><switch><text x="344" y="249"><tspan>Hong</tspan></text></switch><switch><text x="380" y="239"><tspan>Teck</tspan></text></switch><switch><text x="378" y="249"><tspan>Whye</tspan></text></switch><switch><text x="407" y="221"><tspan>Phoenix</tspan></text></switch><switch><text x="525" y="242"><tspan>Petir</tspan></text></switch><switch><text x="525" y="272"><tspan>Pending</tspan></text></switch><switch><text x="569" y="251"><tspan>Bangkit</tspan></text></switch><switch><text x="569" y="229"><tspan>Fajar</tspan></text></switch><switch><text x="569" y="207"><tspan>Segar</tspan></text></switch><switch><text x="525" y="186"><tspan>Jelapang</tspan></text></switch><switch><text x="525" y="215"><tspan>Senja</tspan></text></switch></g><g font-size="10" fill="#000000"><switch><text x="1096" y="315"><tspan>Compassvale</tspan></text></switch><switch><text x="1155" y="335"><tspan>Rumbia</tspan></text></switch><switch><text x="1157" y="379"><tspan>Bakau</tspan></text></switch><switch><text x="1071" y="384"><tspan>Kangkar</tspan></text></switch><switch><text x="1045" y="354"><tspan>Ranggung</tspan></text></switch><switch><text x="1071" y="273"><tspan>Cheng</tspan></text></switch><switch><text x="1071" y="283"><tspan>Lim</tspan></text></switch><switch><text x="1065" y="246"><tspan>Farmway</tspan></text></switch><switch><text x="1048" y="228"><tspan>Kupang</tspan></text></switch><switch><text x="970" y="226"><tspan>Thanggam</tspan></text></switch><switch><text x="961" y="246"><tspan>Fernvale</tspan></text></switch><switch><text x="974" y="277"><tspan>Layar</tspan></text></switch><switch><text x="973" y="293"><tspan>Tongkang</tspan></text></switch><switch><text x="1025" y="286"><tspan>Renjong</tspan></text></switch></g><g font-size="10" fill="#000000"><switch><text x="1164" y="250"><tspan>Cove</tspan></text></switch><switch><text x="1154" y="275"><tspan>Meridian</tspan></text></switch><switch><text x="1160" y="293"><tspan>Coral Edge</tspan></text></switch><switch><text x="1252" y="282"><tspan>Riviera</tspan></text></switch><switch><text x="1259" y="245"><tspan>Kadaloor</tspan></text></switch><switch><text x="1243" y="229"><tspan>Oasis</tspan></text></switch><switch><text x="1198" y="219"><tspan>Damai</tspan></text></switch><switch><text x="1166" y="177"><tspan>Sam Kee</tspan></text></switch><switch><text x="1162" y="150"><tspan>Teck Lee</tspan></text></switch><switch><text x="1145" y="131"><tspan>Punggol Point</tspan></text></switch><switch><text x="1056" y="142"><tspan>Samudera</tspan></text></switch><switch><text x="1063" y="181"><tspan>Nibong</tspan></text></switch><switch><text x="1075" y="198"><tspan>Sumang</tspan></text></switch><switch><text x="1131" y="182"><tspan>Soo</tspan></text></switch><switch><text x="1130" y="191"><tspan>Teck</tspan></text></switch></g><g font-size="12" fill="#aaaaaa"><switch><text x="360" y="29"><tspan>Bukit Chagar</tspan></text></switch><switch><text x="356" y="41"><tspan>(Johor Bahru)</tspan></text></switch></g></g></svg>